<svg 
 xmlns="http://www.w3.org/2000/svg"
 xmlns:xlink="http://www.w3.org/1999/xlink"
 width="10px" height="10px" viewBox="0 0 10 10">
<path fill-rule="evenodd"  fill="rgb(255, 255, 255)"
 d="M9.000,7.000 L7.000,7.000 L7.000,9.000 L7.000,10.000 L6.000,10.000 L1.000,10.000 L0.000,10.000 L0.000,9.000 L0.000,4.000 L0.000,3.000 L1.000,3.000 L3.000,3.000 L3.000,1.000 L3.000,0.000 L4.000,0.000 L9.000,0.000 L10.000,0.000 L10.000,1.000 L10.000,6.000 L10.000,7.000 L9.000,7.000 ZM3.000,7.000 L3.000,6.000 L3.000,4.000 L1.000,4.000 L1.000,9.000 L6.000,9.000 L6.000,7.000 L4.000,7.000 L3.000,7.000 ZM9.000,1.000 L4.000,1.000 L4.000,6.000 L9.000,6.000 L9.000,1.000 Z"/>
</svg>