<?xml version="1.0" encoding="utf-8"?>
<!-- Generator: Adobe Illustrator 23.0.1, SVG Export Plug-In . SVG Version: 6.00 Build 0)  -->
<svg version="1.1" id="レイヤー_1" xmlns="http://www.w3.org/2000/svg" xmlns:xlink="http://www.w3.org/1999/xlink" x="0px"
	 y="0px" viewBox="0 0 159 137" style="enable-background:new 0 0 159 137;" xml:space="preserve">
<style type="text/css">
	.st0{fill:#FFFFFF;}
</style>
<path class="st0" d="M148,61.8C144.7,27.1,115.6,0,80,0C61.5,0,44.7,7.4,32.4,19.4l11.2,11.4C53,21.6,65.9,16,80,16
	c26.7,0,48.7,20,51.9,45.8h-14.3l20.5,40.5l20.5-40.5H148z"/>
<path class="st0" d="M116.8,105.5c-9.5,9.3-22.4,15.1-36.8,15.1c-26.5,0-48.4-19.7-51.9-45.3H41L20.5,34.8L0,75.3h12
	c3.5,34.5,32.6,61.3,68,61.3c18.6,0,35.5-7.5,47.8-19.5L116.8,105.5z"/>
</svg>
